<?xml version="1.0" standalone="no"?>
<!DOCTYPE svg PUBLIC "-//W3C//DTD SVG 20010904//EN"
 "http://www.w3.org/TR/2001/REC-SVG-20010904/DTD/svg10.dtd">
<svg version="1.0" xmlns="http://www.w3.org/2000/svg"
 width="358.000000pt" height="358.000000pt" viewBox="0 0 358.000000 358.000000"
 preserveAspectRatio="xMidYMid meet">

<g transform="translate(0.000000,358.000000) scale(0.100000,-0.100000)"
fill="currentColor" stroke="none" >
<path d="M1570 3530 c-454 -63 -851 -285 -1134 -633 -180 -222 -302 -487 -363
-785 -25 -124 -25 -499 0 -624 155 -772 752 -1328 1522 -1419 139 -16 392 -6
529 21 818 162 1406 876 1406 1710 0 835 -585 1546 -1406 1711 -123 24 -437
35 -554 19z m523 -239 c463 -99 840 -386 1051 -800 65 -127 117 -279 142 -416
26 -139 26 -411 0 -550 -113 -610 -579 -1085 -1193 -1216 -140 -30 -373 -37
-520 -15 -752 111 -1303 748 -1303 1506 0 750 542 1385 1285 1505 132 21 409
14 538 -14z" />
<path d="M1064 2527 c-54 -22 -92 -56 -118 -109 -103 -206 125 -413 321 -292
136 85 136 294 -1 378 -55 34 -148 45 -202 23z"/>
<path d="M2352 2525 c-117 -52 -170 -170 -130 -286 52 -153 257 -199 371 -83
42 42 59 81 64 149 7 82 -31 156 -101 199 -58 36 -150 46 -204 21z"/>
<path d="M1631 1474 c-145 -26 -314 -94 -427 -172 -71 -48 -171 -134 -209
-180 -77 -92 -29 -212 86 -212 47 0 53 3 122 68 121 111 254 189 392 227 83
23 289 31 378 15 92 -16 196 -52 266 -91 73 -41 184 -123 213 -157 37 -44 70
-62 111 -62 79 0 127 50 127 131 0 39 -5 47 -82 124 -164 164 -378 274 -603
310 -109 18 -274 18 -374 -1z"/>
</g>
</svg>
