<?xml version="1.0" standalone="no"?>
<!DOCTYPE svg PUBLIC "-//W3C//DTD SVG 20010904//EN"
 "http://www.w3.org/TR/2001/REC-SVG-20010904/DTD/svg10.dtd">
<svg version="1.0" xmlns="http://www.w3.org/2000/svg"
 width="358.000000pt" height="358.000000pt" viewBox="0 0 358.000000 358.000000"
 preserveAspectRatio="xMidYMid meet">

<g transform="translate(0.000000,358.000000) scale(0.100000,-0.100000)"
fill="currentColor" stroke="none">
<path d="M1657 3529 c-697 -57 -1291 -522 -1512 -1181 -123 -368 -123 -748 0
-1116 133 -396 406 -732 770 -947 665 -393 1523 -294 2083 240 264 251 434
558 514 925 20 93 22 133 22 340 0 207 -2 247 -22 340 -171 787 -798 1338
-1592 1400 -69 5 -134 9 -145 8 -11 0 -64 -4 -118 -9z m310 -230 c579 -64
1080 -468 1269 -1020 130 -383 102 -806 -79 -1164 -160 -318 -439 -583 -756
-719 -493 -210 -1053 -150 -1486 159 -116 83 -267 233 -349 348 -75 104 -173
295 -210 407 -55 168 -70 270 -70 480 0 165 3 211 23 300 32 149 63 238 131
375 211 424 611 729 1068 814 59 11 123 22 142 24 77 8 226 6 317 -4z"/>
<path d="M1123 2529 c-190 -34 -255 -269 -109 -396 106 -94 282 -60 348 66 89
170 -51 363 -239 330z"/>
<path d="M2355 2514 c-120 -65 -165 -197 -106 -312 84 -163 319 -165 403 -3
54 103 24 229 -71 296 -37 26 -53 30 -119 33 -56 2 -85 -2 -107 -14z"/>
<path d="M1174 1385 c-14 -22 -16 -41 -10 -118 9 -112 20 -163 57 -244 37 -84
101 -165 174 -220 128 -97 215 -123 409 -123 164 0 225 12 329 67 132 70 233
189 284 335 34 97 45 284 19 311 -16 16 -67 17 -631 17 l-615 0 -16 -25z"/>
</g>
</svg>
