<?xml version="1.0" standalone="no"?>
<!DOCTYPE svg PUBLIC "-//W3C//DTD SVG 20010904//EN"
 "http://www.w3.org/TR/2001/REC-SVG-20010904/DTD/svg10.dtd">
<svg version="1.0" xmlns="http://www.w3.org/2000/svg"
 width="358.000000pt" height="358.000000pt" viewBox="0 0 358.000000 358.000000"
 preserveAspectRatio="xMidYMid meet">

<g transform="translate(0.000000,358.000000) scale(0.100000,-0.100000)"
fill="currentColor" stroke="none">
<path d="M1585 3525 c-360 -48 -672 -188 -942 -425 -296 -258 -504 -633 -569
-1025 -26 -151 -26 -419 0 -570 93 -558 448 -1034 961 -1286 413 -202 880
-232 1323 -84 467 157 852 512 1046 965 98 229 138 432 138 690 0 258 -40 461
-138 690 -303 709 -1061 1145 -1819 1045z m466 -240 c267 -43 537 -172 752
-360 391 -343 579 -880 488 -1395 -149 -846 -964 -1398 -1806 -1224 -281 58
-546 204 -755 414 -263 263 -408 572 -441 939 -32 351 59 694 265 996 83 122
266 305 386 384 342 228 709 309 1111 246z" />
<path d="M1081 2525 c-82 -26 -161 -130 -161 -212 0 -113 88 -217 202 -238 50
-10 140 18 184 57 133 117 89 336 -79 392 -57 19 -87 19 -146 1z"/>
<path d="M2364 2524 c-47 -17 -106 -70 -130 -115 -64 -125 15 -295 154 -329
174 -41 327 119 276 290 -37 126 -180 199 -300 154z"/>
<path d="M1203 1169 c-44 -28 -61 -84 -42 -135 16 -42 52 -72 89 -75 14 -1
274 -1 578 -1 l554 2 29 29 c24 25 29 37 29 80 0 42 -5 56 -29 83 l-29 33
-574 2 c-566 3 -573 3 -605 -18z"/>
</g>
</svg>
