<?xml version="1.0" standalone="no"?>
<!DOCTYPE svg PUBLIC "-//W3C//DTD SVG 20010904//EN"
 "http://www.w3.org/TR/2001/REC-SVG-20010904/DTD/svg10.dtd">
<svg version="1.0" xmlns="http://www.w3.org/2000/svg"
 width="358.000000pt" height="358.000000pt" viewBox="0 0 358.000000 358.000000"
 preserveAspectRatio="xMidYMid meet">

<g transform="translate(0.000000,358.000000) scale(0.100000,-0.100000)"
fill="currentColor"  stroke="none">
<path d="M1606 3529 c-342 -36 -672 -176 -941 -400 -314 -262 -525 -628 -601
-1044 -26 -140 -26 -450 0 -590 49 -266 147 -502 303 -722 347 -491 957 -776
1551 -725 357 31 645 140 922 348 360 270 601 673 676 1129 22 134 22 396 0
530 -62 380 -231 708 -503 980 -362 362 -893 548 -1407 494z m408 -240 c659
-99 1175 -620 1275 -1286 14 -93 14 -333 0 -426 -81 -542 -444 -1001 -944
-1196 -192 -75 -352 -105 -565 -104 -156 0 -288 18 -419 58 -552 167 -958 617
-1067 1185 -25 132 -25 408 0 540 109 568 515 1018 1068 1185 71 22 218 49
313 59 59 6 258 -3 339 -15z" />
<path d="M1068 2526 c-55 -22 -97 -56 -124 -102 -105 -179 63 -397 261 -339
203 58 229 330 41 427 -50 26 -130 32 -178 14z"/>
<path d="M2357 2525 c-58 -22 -94 -52 -124 -103 -24 -39 -28 -58 -28 -117 1
-78 15 -113 67 -165 44 -45 92 -63 165 -63 51 -1 70 4 109 29 72 44 107 100
112 178 5 76 -9 126 -51 172 -60 69 -170 100 -250 69z"/>
<path d="M1044 1356 c-68 -30 -95 -116 -59 -185 35 -69 229 -219 370 -287 355
-170 764 -144 1092 68 88 58 215 168 242 212 26 42 27 101 2 142 -18 30 -74
64 -105 64 -34 0 -83 -29 -141 -84 -179 -171 -405 -255 -650 -243 -220 12
-401 90 -568 247 -86 80 -121 93 -183 66z"/>
</g>
</svg>
