<?xml version="1.0" standalone="no"?>
<!DOCTYPE svg PUBLIC "-//W3C//DTD SVG 20010904//EN"
 "http://www.w3.org/TR/2001/REC-SVG-20010904/DTD/svg10.dtd">
<svg version="1.0" xmlns="http://www.w3.org/2000/svg"
 width="358.000000pt" height="358.000000pt" viewBox="0 0 358.000000 358.000000"
 preserveAspectRatio="xMidYMid meet">

<g transform="translate(0.000000,358.000000) scale(0.100000,-0.100000)"
fill="currentColor" stroke="none">
<path d="M1640 3539 c-204 -17 -407 -73 -598 -164 -501 -241 -843 -679 -964
-1235 -20 -92 -22 -133 -22 -340 0 -207 2 -248 22 -340 121 -556 463 -994 964
-1235 860 -413 1903 -49 2318 810 97 200 151 398 172 636 33 361 -72 769 -279
1084 -300 455 -773 736 -1323 785 -127 11 -151 11 -290 -1z m438 -249 c307
-62 546 -188 768 -402 226 -219 368 -477 436 -792 32 -146 32 -446 0 -592 -47
-218 -134 -416 -259 -591 -84 -118 -261 -291 -383 -372 -458 -306 -1035 -344
-1525 -99 -624 312 -956 1008 -805 1687 140 630 663 1101 1310 1181 116 14
340 5 458 -20z" />
<path d="M1087 2536 c-207 -57 -227 -350 -30 -433 43 -18 135 -17 181 3 139
58 183 239 85 353 -62 73 -148 101 -236 77z"/>
<path d="M2362 2531 c-104 -36 -157 -117 -150 -230 7 -122 84 -202 203 -209
76 -5 125 10 171 51 122 106 98 303 -46 377 -57 29 -117 33 -178 11z"/>
<path d="M1596 1684 c-94 -23 -193 -81 -271 -159 -81 -81 -127 -161 -155 -271
-23 -89 -28 -252 -8 -272 17 -17 1239 -17 1256 0 17 17 15 201 -3 273 -27 106
-73 183 -160 270 -86 87 -161 131 -270 160 -76 19 -306 19 -389 -1z"/>
</g>
</svg>
